<?xml version="1.0" encoding="utf-8"?>
<!-- Generator: Adobe Illustrator 27.2.0, SVG Export Plug-In . SVG Version: 6.00 Build 0)  -->
<svg version="1.1" id="_レイヤー_2" xmlns="http://www.w3.org/2000/svg" xmlns:xlink="http://www.w3.org/1999/xlink" x="0px"
	 y="0px" viewBox="0 0 110 110" style="enable-background:new 0 0 110 110;" xml:space="preserve">
<style type="text/css">
	.st0{fill:#F5E8AC;}
	.st1{fill:#FFFFFF;}
	.st2{fill:#B1B1B1;}
	.st3{fill:#343434;}
</style>
<g id="contents">
	<g>
		<g>
			<path class="st0" d="M107.7,107.5H21c0.5-2.6-0.4-7.5,2.2-10.5c1.5-1.7,2.2-8.8,1.5-13.8l0.3,0c7.8-3.7,17.1-6,17.8-6.2
				c2,4.6,7.3,6.6,13,6.8c1,0,1.9,0,2.8-0.1c6.6-0.5,13-3.3,14.2-7.7v0c1.3,0.3,23.7,5.2,28.7,13.6
				C103.7,93.3,106,100.2,107.7,107.5L107.7,107.5z"/>
			<path class="st1" d="M51.3,58c0.2,2.7,2.7,4.1,5.8,4c2.8-0.1,5-1.6,5.4-4.1l-0.3-0.1c0,0-2.6-0.2-5.3-0.2
				C54.5,57.6,51.9,57.9,51.3,58L51.3,58z M38.2,53l-0.9-0.3c-6.1,0-9-9.3-5.2-11.6c1-0.6,2.4-0.7,4.3-0.1v0c0.3,0,0.5-0.1,0.7-0.2
				l5.8,1.5c0,0.1,0,0.2,0,0.3c-0.1,2.5,1,5.9,5.6,5.7c3.6-0.1,5.1-2.2,5.2-5.1l0,0l6.2-0.1h0c0.2,2.7,1.7,4.7,5.2,4.9
				c4.5,0.2,5.7-3.2,5.6-5.7h0.2l5.7-2.1l0.1,0.2c1.5-1,3.1-0.6,4.3,0.5c0.9,0.8,1.6,2,1.7,3.2c0.6,4.7-2.4,7.3-6.4,9.3l-0.6-0.1
				c-0.6,3.2-2.2,8.4-6.2,12.2c-2.8,2.7-6.7,4.7-12.3,4.9c-5.2,0.2-9.1-1.7-11.9-4.4C41,61.9,39,56.1,38.2,53L38.2,53z"/>
			<path class="st2" d="M37.1,40.9c-0.2,0.1-0.4,0.2-0.7,0.2v0c-1.9-0.6-3.3-0.5-4.3,0.1l0-0.3c-1-2.9-1.2-6.1-0.8-9.3
				c0-0.3,0.6-3.9,0.5-4c-0.2-0.2-1.6,1-2,0.7c-0.2-0.1,0.8-2.3,0.9-2.6c0.8-3.1,1.9-6.4,3.6-9.1c1.1-1.9,4.2-4.5,6.2-5.5
				c0.4-0.2,3-1.2,3-1.6c0-1-3.2-0.2-2.7-1c0-0.1,0.2,0,0.4,0c2.1-0.3,4.2-1.6,6-2.7c7.5-4.5,14.5-5.8,21.1,0.8
				c1.3,1.3,3.9,3.7,3.9,5.7l0,0.1c2.8-0.9,7.4,1.5,10.3,9.2c3.6,9.2-1.2,19-1.2,19L81.1,41c-1.2-1.1-2.8-1.5-4.3-0.5l-0.1-0.2
				l0.1-0.3c-4.1-2.5-8.7-15.9-8.1-17.9l-0.1-0.3c-5.8,2.9-11.7,6.7-18.5,6.7c-0.3,0,0.5-0.1,0.7-0.3c0.2-0.1,1.4-0.9,1.4-1
				c0-0.1-0.7-0.1-0.8-0.1c-1.7,0-3.5-0.5-5.1,0.5c-2.2,1.3-3.7,3.8-4.6,6c-0.3,0.8-0.6,1.7-0.8,2.6c-0.1,0.3,0.1,1.1-0.2,1
				c-0.3-0.1-0.8-2.2-1.1-1.6C38.8,36.8,38.6,40,37.1,40.9L37.1,40.9z"/>
			<path class="st1" d="M76.7,40l-0.1,0.3l-5.7,2.1h-0.2c-0.1-3-2.9-3.9-5.2-3.9c-2.7,0-5.5,0.7-5.6,4c0,0.3,0,0.5,0,0.8h0l-6.2,0.1
				l0,0c0-0.2,0-0.4,0-0.6c-0.1-3.2-2.9-4-5.6-4c-2.2,0-4.9,0.9-5.2,3.6l-5.8-1.5c1.5-0.9,1.6-4.1,2.4-5.3c0.4-0.5,0.8,1.5,1.1,1.6
				c0.3,0.1,0.1-0.7,0.2-1c0.2-0.9,0.5-1.8,0.8-2.6c0.9-2.2,2.4-4.7,4.6-6c1.6-1,3.4-0.5,5.1-0.5c0.1,0,0.8-0.1,0.8,0.1
				c0,0.1-1.2,0.9-1.4,1c-0.2,0.2-1,0.3-0.7,0.3c6.7,0,12.7-3.8,18.5-6.7l0.1,0.3C68,24.1,72.6,37.5,76.7,40L76.7,40z"/>
			<path class="st1" d="M72.9,76.1L72.9,76.1c-1.2,4.4-7.6,7.2-14.2,7.7l0-0.3c0,0-0.7-6,2.5-6.1c2.2-0.1,6.5-2.7,8.9-4.2
				c1.1-0.7,1.9-1.2,1.9-1.2l0.6,4.2H72.9C72.8,76.1,72.8,76.1,72.9,76.1z"/>
			<path class="st1" d="M70.7,42.4c0.1,2.5-1,5.9-5.6,5.7c-3.5-0.1-5-2.1-5.2-4.9c0-0.3,0-0.5,0-0.8c0.1-3.2,2.9-4,5.6-4
				C67.7,38.5,70.5,39.4,70.7,42.4L70.7,42.4L70.7,42.4z"/>
			<path class="st1" d="M69.8,72.7l0.3,0.4c-2.5,1.6-6.8,4.1-8.9,4.2c-3.1,0.2-2.5,6.1-2.5,6.1l0,0.3c-1,0.1-1.9,0.1-2.8,0.1v0
				c0,0,0.7-6.6-2-6.4c-2.1,0.1-7.2-2.9-9.3-4.2l0.3-0.1c0,0,0.2-3.8,0.2-6.9l0.2-0.2c2.8,2.7,6.7,4.6,11.9,4.4
				c5.6-0.2,9.6-2.2,12.4-4.9l0.1,0.1C69.7,68.7,69.8,72.7,69.8,72.7L69.8,72.7z"/>
			<path class="st1" d="M62.3,57.8l0.3,0.1c-0.5,2.4-2.6,4-5.4,4.1c-3.2,0.1-5.7-1.3-5.8-4c0.6-0.1,3.3-0.4,5.7-0.4
				C59.7,57.6,62.3,57.9,62.3,57.8L62.3,57.8z"/>
			<path class="st1" d="M53.8,77.4c2.7-0.1,2,6.4,2,6.4v0c-5.7-0.2-11.1-2.3-13-6.8c0,0,0,0,0,0l0.2-0.1l0.5-4.2
				c0,0,0.3,0.2,0.9,0.6C46.6,74.5,51.7,77.5,53.8,77.4L53.8,77.4z"/>
			<path class="st1" d="M42.8,42.3c0.3-2.7,3-3.5,5.2-3.6c2.7,0,5.5,0.7,5.6,4c0,0.2,0,0.4,0,0.6c-0.1,2.8-1.7,4.9-5.2,5.1
				c-4.5,0.2-5.7-3.2-5.6-5.7C42.8,42.6,42.8,42.4,42.8,42.3L42.8,42.3z"/>
			<path class="st1" d="M18,81.8c-1.1-0.3-2.2-0.6-2.6-0.8c-0.3-0.1-0.6-0.4-0.8-0.9c-0.6-1-0.6-2.6,0.8-2.6c0.1,0,0.2,0,0.3,0
				c0.9,0.1,2,0.1,3.1,0.2c2,0.1,4,0.4,4.7,1.5c0.5,1,0.9,2.4,1.1,3.9c0.7,5.1,0,12.1-1.5,13.8c-2.6,3-1.7,7.9-2.2,10.5H7.3l0.1-8.1
				l0.2-0.1c-1-1.2-1.7-2.8-2.4-4.2C3,90.6,0,85.5,4.9,81.2c0.4-0.3,1-0.3,1.6-0.1c2.9,1.1,7.5,6.8,7.7,8.4c0,0.2,0,0.4,0,0.6
				c0.8,0.8,2.6-0.1,2.1-1.8c-0.1-0.3-0.2-0.6-0.3-1l0.6,0c2.8,2.9,3.3-3.3,1.4-5.3L18,81.8L18,81.8z"/>
			<path class="st1" d="M18.9,77.3l0,0.4c-1.1-0.1-2.3-0.1-3.1-0.2c-0.1,0-0.2,0-0.3,0l0.4-0.3c-0.1-1.2-0.7-1.9-1.5-2.3l0.1-0.1
				c-0.2-1.6-1.5-7.6-2.3-10.9c-0.6-2.4,1.7-4.2,3.4-0.3C16.2,65.3,18.9,77.3,18.9,77.3z"/>
			<path class="st1" d="M18,81.9c1.9,1.9,1.4,8.2-1.4,5.3l-0.6,0c-0.6-1.8-1.8-4.7-3.2-6.8l1.8-0.3c0.2,0.4,0.5,0.8,0.8,0.9
				c0.4,0.1,1.5,0.4,2.6,0.8L18,81.9L18,81.9z"/>
			<path class="st1" d="M9.6,78.2c1.1-0.1,2.3,0.9,3.2,2.2c1.4,2.1,2.6,5,3.2,6.8c0.1,0.4,0.3,0.8,0.3,1c0.5,1.7-1.4,2.5-2.1,1.8
				c0-0.2,0-0.3,0-0.6c-0.2-1.6-4.8-7.3-7.7-8.4l0.2-0.6c0.3-0.8,1.3-1.6,2-2C9.1,78.3,9.3,78.2,9.6,78.2z"/>
			<path class="st1" d="M15.8,77.2l-0.4,0.3c-1.5,0-1.4,1.6-0.8,2.6l-1.8,0.3c-1-1.4-2.1-2.4-3.2-2.2c-0.3-2.8,2.8-4.2,4.8-3.2
				C15.1,75.3,15.7,76.1,15.8,77.2L15.8,77.2z"/>
		</g>
		<path class="st3" d="M6.2,60c-0.2,0-0.3,0-0.5-0.1c-0.4-0.2-1.1-0.6-1.3-0.7c-0.5-0.2-0.8-0.8-0.7-1.3S4.4,57,5,57.2
			c0.6,0.2,1.5,0.7,1.7,0.8c0.5,0.3,0.7,0.9,0.4,1.4C6.9,59.8,6.5,60,6.2,60L6.2,60z"/>
		<g>
			<path class="st3" d="M66.9,44.1c-0.2,0-0.3,0-0.5-0.1l0,0c0,0-1.4-0.9-2.4-0.4c-0.4,0.2-0.9,0.1-1.1-0.3s-0.1-0.9,0.3-1.1
				c1.9-1,4.1,0.4,4.1,0.5c0.4,0.3,0.5,0.8,0.2,1.2C67.4,44,67.2,44.1,66.9,44.1L66.9,44.1z"/>
			<path class="st3" d="M46.6,44.4c-0.3,0-0.5-0.1-0.7-0.4c-0.3-0.4-0.2-0.9,0.2-1.2c0.1-0.1,2.2-1.5,4.1-0.5
				c0.4,0.2,0.6,0.7,0.3,1.1s-0.7,0.6-1.1,0.3c-1-0.5-2.4,0.4-2.4,0.4C46.9,44.3,46.7,44.4,46.6,44.4L46.6,44.4z"/>
			<path class="st3" d="M56.9,63c-3.8,0-6.4-1.9-6.7-4.9c0-0.1,0-0.1,0-0.2c0-0.6,0.5-1,1-1c0.5,0,0.9,0.3,1,0.8c0,0.1,0,0.1,0,0.2
				c0.2,2.9,3.7,3.1,4.8,3c2.3-0.1,4-1.3,4.4-3.2c0.1-0.6,0.7-1,1.2-0.9c0.6,0.1,1,0.6,0.8,1.2l0,0.1c-0.6,3-3.1,4.9-6.4,5
				C57.1,63,57,63,56.9,63L56.9,63z"/>
			<path class="st3" d="M51.2,59c-0.5,0-0.9-0.3-1-0.8C50,57.6,50.4,57.1,51,57c0,0,0.1,0,0.2,0c1-0.1,3.5-0.4,5.8-0.4
				c2.8,0,5.3,0.2,5.4,0.3c0.6,0,1,0.6,1,1.1s-0.6,1-1.1,1c0,0-2.5-0.2-5.2-0.2c-2.2,0-4.6,0.2-5.6,0.3C51.4,59,51.3,59,51.2,59
				L51.2,59z"/>
			<path class="st3" d="M20.4,83.4c-0.3,0-0.5-0.1-0.7-0.3l0.6-0.6l0.5-1.2c0.1,0.1,0.3,0.2,0.4,0.3c0.4,0.4,0.4,1.1,0,1.5
				C21,83.3,20.7,83.4,20.4,83.4L20.4,83.4z"/>
			<path class="st3" d="M21,108.6c-0.1,0-0.1,0-0.2,0c-0.6-0.1-0.9-0.7-0.8-1.2c0.1-0.7,0.2-1.7,0.2-2.7c0.1-2.6,0.2-5.9,2.2-8.3
				c1.1-1.3,2-7.8,1.2-13c-0.2-1.5-0.5-2.8-1-3.6c-0.4-0.8-3-0.9-3.8-1l-0.8,0c-0.9,0-1.7-0.1-2.4-0.2c-0.2,0-0.4,0-0.4,0
				c0,0.1,0,0.5,0.3,1c0.1,0.2,0.3,0.4,0.3,0.4c0.4,0.1,2,0.6,2.5,0.7c1.3,0.4,2.1,0.6,2.2,0.6c0.5,0.1,0.9,0.5,0.9,1
				c0,0.6-0.5,1.1-1,1.1c-0.2,0-0.3,0-2.7-0.7c-1.5-0.4-2.3-0.7-2.6-0.8c-0.6-0.2-1-0.7-1.4-1.3c-0.4-0.8-0.8-2.2-0.2-3.1
				c0.2-0.4,0.9-1.2,2.4-1c0.6,0.1,1.4,0.1,2.2,0.2l0.8,0c2.2,0.1,4.6,0.4,5.5,2.1c0.5,1,1,2.5,1.2,4.3c0.7,5,0.1,12.5-1.7,14.6
				c-1.6,1.8-1.6,4.5-1.7,6.9c0,1.1-0.1,2.2-0.3,3.1C21.9,108.2,21.4,108.6,21,108.6L21,108.6z"/>
			<path class="st3" d="M18.9,78.4c-0.5,0-0.9-0.3-1-0.8C16.8,72.8,15,65.2,14.5,64c-0.6-1.4-1.2-1.6-1.3-1.6
				c-0.1,0-0.4,0.5-0.2,1.2c0.9,3.3,2.1,9.4,2.4,11c0.1,0.6-0.3,1.1-0.9,1.2s-1.1-0.3-1.2-0.9c-0.2-1.4-1.4-7.4-2.3-10.8
				c-0.4-1.7,0.2-3.3,1.5-3.8c0.5-0.2,2.4-0.6,3.9,2.7c0.8,1.8,3.2,12.7,3.5,14c0.1,0.6-0.2,1.1-0.8,1.2
				C19.1,78.4,19,78.4,18.9,78.4L18.9,78.4z"/>
			<path class="st3" d="M9.6,79.3c-0.6,0-1-0.4-1.1-1c0,0,0-0.1,0-0.1c-0.1-1.6,0.5-3,1.8-3.9c1.4-0.9,3.1-1.1,4.4-0.4
				c1.1,0.6,1.9,1.7,2,3.1c0.1,0.6-0.3,1.1-0.9,1.2c-0.6,0.1-1.1-0.3-1.2-0.9c-0.1-0.7-0.4-1.2-0.9-1.5c-0.7-0.3-1.6-0.2-2.3,0.3
				c-0.4,0.3-1,0.9-0.9,1.9v0c0,0.1,0,0.1,0,0.2C10.6,78.8,10.1,79.3,9.6,79.3L9.6,79.3z"/>
			<path class="st3" d="M17.9,89c-0.7,0-1.4-0.4-2-1.1c-0.4-0.4-0.4-1.1,0-1.5c0.4-0.4,1.1-0.4,1.5,0c0.2,0.2,0.4,0.3,0.5,0.4
				c0.1-0.2,0.2-0.6,0.2-1.2c0-1.2-0.3-2.4-0.8-2.9c-0.4-0.4-0.4-1.1,0-1.5c0.4-0.4,1.1-0.4,1.5,0c1.3,1.4,1.7,4.2,1.2,5.9
				c-0.4,1.3-1.2,1.7-1.6,1.8C18.2,89,18,89,17.9,89L17.9,89z"/>
			<path class="st3" d="M15,91.4c-0.6,0-1.1-0.2-1.5-0.6c-0.3-0.3-0.5-0.8-0.6-1.2c-0.1-0.6,0.3-1.1,0.9-1.2
				c0.6-0.1,1.1,0.3,1.2,0.9c0,0,0.2,0,0.3-0.1c0.1-0.1,0.2-0.2,0.1-0.5l0-0.1c-0.1-0.2-0.2-0.5-0.3-0.8c-0.6-1.6-1.7-4.5-3.1-6.6
				c-0.9-1.2-1.7-1.9-2.3-1.8c-0.1,0-0.2,0.1-0.4,0.1c-0.7,0.4-1.4,1.1-1.5,1.5c-0.2,0.6-0.8,0.8-1.3,0.6s-0.8-0.8-0.6-1.3
				c0.4-1.2,1.8-2.2,2.5-2.6c0.4-0.2,0.8-0.3,1.2-0.4c1.4-0.2,2.8,0.7,4.2,2.7c1.6,2.2,2.8,5.4,3.4,7.1c0.1,0.4,0.2,0.7,0.3,0.9
				l0,0.1c0.4,1.2,0,2.4-1.1,3.1C15.9,91.2,15.4,91.4,15,91.4L15,91.4z"/>
			<path class="st3" d="M6.1,89.8c-0.3,0-0.6-0.1-0.8-0.3c-0.4-0.4-0.4-1.1,0-1.5c0.2-0.2,0.4-1,0.4-1.4c0.1-0.4,0.2-0.8,0.3-1.1
				c0.2-0.6,0.8-0.8,1.3-0.6C8,85,8.3,85.6,8.1,86.1c-0.1,0.2-0.1,0.5-0.2,0.8c-0.2,0.9-0.4,1.9-1,2.5C6.6,89.7,6.3,89.7,6.1,89.8
				L6.1,89.8z"/>
			<path class="st3" d="M9.5,88.9c-0.1,0-0.2,0-0.4-0.1c-0.2-0.1-0.3-0.2-0.4-0.3c-0.2-0.1-0.6-0.2-1.4-0.5C7.2,88,7.1,88,7.1,88
				c-0.6-0.2-0.8-0.8-0.6-1.3s0.8-0.8,1.3-0.6L8,86.1c1.7,0.5,2.2,0.8,2.5,1.3c0.1,0.3,0.1,0.6,0.1,0.9C10.4,88.7,10,88.9,9.5,88.9
				L9.5,88.9z M8.9,88.6L8.9,88.6L8.9,88.6z M8.6,87.5c0,0.1,0,0.1-0.1,0.2C8.5,87.6,8.5,87.6,8.6,87.5z"/>
			<path class="st3" d="M8.1,101c-0.1,0-0.2,0-0.4-0.1c-0.3-0.1-0.5-0.3-0.6-0.5c0,0,0,0-0.1-0.1l-0.1-0.1c-0.1-0.1-0.1-0.1-0.2-0.2
				c-0.9-1.1-1.7-2.5-2.3-3.8l-0.7-1.4C1.7,90.4-1,84.9,4.2,80.4c0.5-0.4,1.3-0.8,2.7-0.3c2.3,0.9,8.1,6.6,8.4,9.2
				c0,0.3,0,0.6,0,0.9c-0.2,0.8-0.8,1.5-1.6,1.8c-0.9,0.3-1.9,0.1-2.7-0.6c-0.4-0.4-0.7-0.8-1-1.1c-0.3-0.4-0.6-0.8-0.9-1
				c-0.5-0.4-0.5-1-0.2-1.5c0.4-0.5,1-0.5,1.5-0.2c0.5,0.4,0.9,0.9,1.3,1.4c0.2,0.3,0.5,0.6,0.7,0.9c0.2,0.2,0.4,0.2,0.6,0.2
				c0.1-0.1,0.2-0.1,0.2-0.2c0-0.1,0-0.1,0-0.2c-0.2-1.1-4.4-6.5-7.1-7.5C5.8,81.9,5.6,82,5.6,82c-4,3.5-2,7.6,0.1,11.9l0.7,1.4
				c0.6,1.2,1.2,2.5,2,3.4c0.1,0.1,0.1,0.1,0.1,0.1l0,0c0.8,0.6,0.6,1.2,0.5,1.5C8.9,100.7,8.5,101,8.1,101L8.1,101z"/>
			<path class="st3" d="M17.2,54.6c0,0-0.1,0-0.1,0c-0.6-0.1-1-0.6-0.9-1.2c0-0.3,0.2-1.7,0.4-2.3c0.2-0.5,0.8-0.8,1.3-0.7
				s0.8,0.8,0.6,1.3c-0.1,0.3-0.2,1.2-0.3,1.9C18.2,54.2,17.7,54.6,17.2,54.6L17.2,54.6z"/>
			<path class="st3" d="M11.6,57.3c-0.5,0-0.9-0.3-1-0.8L10,54.1c-0.1-0.6,0.2-1.1,0.8-1.3c0.6-0.1,1.1,0.2,1.3,0.8l0.6,2.5
				c0.1,0.6-0.2,1.1-0.8,1.3C11.8,57.3,11.7,57.3,11.6,57.3z"/>
			<path class="st3" d="M7.3,108.8c-0.6,0-1.1-0.5-1.1-1.1v-0.2l0.1-8.1c0-0.6,0.5-1,1.1-1h0c0.6,0,1,0.5,1,1.1l-0.1,8.3
				C8.4,108.4,7.9,108.8,7.3,108.8L7.3,108.8z"/>
			<path class="st3" d="M56.5,71.4c-4.6,0-8.7-1.6-12-4.7c-4.5-4.2-6.5-10.2-7.4-13.4c-0.3-1.3-0.5-2.2-0.5-2.2
				C36.6,50.6,37,50,37.6,50c0.6-0.1,1.1,0.3,1.2,0.9c0,0,0.1,0.8,0.4,2c0.8,3,2.7,8.6,6.8,12.4c3.1,2.9,6.8,4.2,11.2,4.1
				c4.7-0.2,8.6-1.7,11.6-4.6c3.7-3.5,5.2-8.3,5.9-11.6c0.3-1.6,0.4-2.7,0.4-2.7c0-0.6,0.5-1,1.1-1c0.6,0,1,0.5,1,1.1
				c0,0-0.1,1.2-0.4,3c-0.8,3.7-2.5,8.8-6.5,12.7c-3.4,3.3-7.8,5-13,5.2C57,71.4,56.8,71.4,56.5,71.4L56.5,71.4z"/>
			<path class="st3" d="M37.3,53.8c-4,0-6.7-3.3-7.6-6.6c-0.8-3-0.1-5.8,1.9-7c1.3-0.8,3.1-0.9,5.2-0.2c0.5,0.2,0.9,0.8,0.7,1.3
				s-0.8,0.9-1.3,0.7c-1.5-0.5-2.7-0.5-3.5,0c-1.3,0.8-1.4,2.9-0.9,4.6c0.7,2.4,2.7,5.1,5.6,5.1c0.6,0,1,0.5,1,1
				S37.9,53.8,37.3,53.8z"/>
			<path class="st3" d="M76.4,54.4c-0.4,0-0.8-0.2-0.9-0.6c-0.2-0.5,0-1.2,0.5-1.4c4.5-2.2,6.3-4.6,5.8-8.2
				c-0.1-0.9-0.6-1.9-1.4-2.5c-0.6-0.5-1.7-1.3-3-0.4c-0.2,0.1-0.3,0.2-0.4,0.3c-0.4,0.4-1.1,0.4-1.5,0s-0.4-1.1,0-1.5
				c0.2-0.2,0.4-0.4,0.7-0.6c1.8-1.2,3.9-1,5.6,0.6c1.1,1,1.9,2.4,2,3.8c0.8,5.9-3.6,8.7-7,10.3C76.7,54.4,76.5,54.4,76.4,54.4z"/>
			<path class="st3" d="M56.3,52.2c-0.6,0-1.1-0.1-1.6-0.3c-0.4-0.2-0.6-0.7-0.4-1.1s0.7-0.6,1.1-0.4c0.5,0.3,1.4,0.2,2.1-0.1
				c0.4-0.2,0.9,0,1.1,0.4c0.2,0.4,0,0.9-0.4,1.1C57.6,52,57,52.2,56.3,52.2z"/>
			<path class="st3" d="M56.8,66.3c-0.6,0-1.1-0.1-1.6-0.3c-0.4-0.2-0.6-0.7-0.4-1.1c0.2-0.4,0.7-0.6,1.1-0.4
				c0.6,0.3,1.4,0.2,2.1-0.1c0.4-0.2,0.9,0,1.1,0.4c0.2,0.4,0,0.9-0.4,1.1C58.1,66.1,57.5,66.2,56.8,66.3L56.8,66.3z"/>
			<path class="st3" d="M76.7,41.1c-0.2,0-0.4,0-0.6-0.2c-2.7-1.7-5-6.8-6.2-9.6c-1.1-2.7-2.8-7.8-2.3-9.4c0.2-0.5,0.8-0.9,1.3-0.7
				c0.6,0.2,0.9,0.8,0.7,1.3c-0.4,1.9,3.9,14.4,7.6,16.7c0.5,0.3,0.6,1,0.3,1.5C77.4,40.9,77.1,41.1,76.7,41.1L76.7,41.1z"/>
			<path class="st3" d="M81.2,41.8c-0.1,0-0.3,0-0.4-0.1c-0.5-0.2-0.7-0.9-0.5-1.4c0.1-0.1,4.5-9.5,1.1-18.2c-2.9-7.4-7-9.2-9-8.6
				l-0.2,0.1c-0.5,0.2-1.2,0-1.4-0.6c-0.2-0.5,0-1.1,0.6-1.4c0.1,0,0.1-0.1,0.2-0.1l0.1,0c0,0,0.1,0,0.1,0c3.4-1.1,8.4,1.6,11.6,9.8
				c3.7,9.5-1,19.4-1.2,19.9C82,41.6,81.6,41.8,81.2,41.8L81.2,41.8z"/>
			<path class="st3" d="M69.8,73.8c-0.6,0-1-0.4-1.1-1c0,0-0.1-4.1-0.1-7.2c0-0.6,0.5-1.1,1.1-1.1s1.1,0.5,1.1,1.1
				c0,3.1,0.1,7.1,0.1,7.1C70.9,73.2,70.4,73.7,69.8,73.8C69.8,73.8,69.8,73.8,69.8,73.8L69.8,73.8z"/>
			<path class="st3" d="M44.8,74.2C44.8,74.2,44.8,74.2,44.8,74.2c-0.7,0-1.1-0.5-1-1.1c0,0,0.2-3.8,0.2-6.9c0-0.6,0.5-1.1,1-1.1
				s1,0.5,1,1.1c0,3.1-0.2,6.9-0.2,7C45.8,73.8,45.4,74.2,44.8,74.2L44.8,74.2z"/>
			<path class="st3" d="M66.9,37.1c-0.2,0-0.3,0-0.5-0.1l0,0c0,0-1.4-0.9-2.4-0.4c-0.4,0.2-0.9,0.1-1.1-0.3s-0.1-0.9,0.3-1.1
				c1.9-1,4.1,0.4,4.1,0.5c0.4,0.3,0.5,0.8,0.2,1.2C67.5,37,67.2,37.1,66.9,37.1z"/>
			<path class="st3" d="M46.5,37.1c-0.3,0-0.5-0.1-0.7-0.4c-0.3-0.4-0.2-0.9,0.2-1.2c0.1-0.1,2.2-1.5,4.1-0.5
				c0.4,0.2,0.6,0.7,0.3,1.1s-0.7,0.6-1.1,0.3C48.4,36,47,36.9,47,37C46.8,37,46.7,37.1,46.5,37.1z"/>
			<path class="st3" d="M56.7,84.9c-0.3,0-0.7,0-1,0c-6.9-0.2-12-3-14-7.5l-0.1-0.2c-0.2-0.5,0-1.2,0.5-1.4c0.5-0.2,1.2,0,1.4,0.5
				l0.1,0.2c1.6,3.7,6.1,6,12.1,6.2c0.8,0,1.7,0,2.7-0.1c6.7-0.5,12.3-3.4,13.3-6.9c0.2-0.6,0.7-0.9,1.3-0.7
				c0.6,0.2,0.9,0.7,0.7,1.3c-1.4,5.2-8.7,8-15.2,8.4C58,84.9,57.4,84.9,56.7,84.9L56.7,84.9z"/>
			<path class="st3" d="M107.7,108.6c-0.5,0-0.9-0.3-1-0.8c-1.9-7.8-4.1-14.2-6.1-17.5c-4.8-8.2-27.8-13.1-28-13.2c0,0-0.1,0-0.1,0
				c-0.5-0.1-0.8-0.5-0.8-1c0-0.7,0.6-1.2,1.4-1c1.3,0.3,24.1,5.2,29.3,14.1c2,3.5,4.3,10.1,6.3,18.1c0.1,0.6-0.2,1.1-0.8,1.3
				C107.9,108.6,107.8,108.6,107.7,108.6L107.7,108.6z"/>
			<path class="st3" d="M24.9,84.2c-0.4,0-0.8-0.2-1-0.6c-0.2-0.5,0-1.2,0.5-1.4c8-3.8,17.3-6.1,18-6.2c0.8-0.2,1.4,0.3,1.4,1
				c0,0.5-0.3,0.9-0.8,1c0,0-0.1,0-0.1,0c-0.1,0-9.6,2.3-17.6,6.1C25.2,84.2,25.1,84.2,24.9,84.2L24.9,84.2z"/>
			<path class="st3" d="M36.2,42.2c-0.6,0-1-0.5-1-1s0.5-1,1-1c0,0,0.1,0,0.1,0c0.1,0,0.2,0,0.3-0.1c0.6-0.3,1-1.7,1.2-2.7
				c0.2-0.9,0.5-1.7,0.9-2.3c0.3-0.4,0.7-0.6,1.1-0.5c0.2,0,0.3,0.1,0.5,0.1c0.2-0.5,0.3-0.9,0.5-1.3c0.7-1.7,2.2-4.9,5-6.5
				c1.5-0.9,3-0.8,4.4-0.7c0.4,0,0.8,0.1,1.3,0.1c0.6,0,1.2,0,1.5,0.3c0.2,0.2,0.3,0.5,0.3,0.8c4.2-0.8,8.1-2.8,11.9-4.8
				c1-0.5,1.9-1,2.9-1.5l0.5,0.9l0.4,1c-1,0.5-1.9,1-2.9,1.5c-5,2.6-10.2,5.4-16.1,5.4c-0.5,0-1-0.4-1.1-0.9c0-0.2,0-0.4,0.1-0.6
				c-0.8,0-1.6,0-2.2,0.4c-2.2,1.4-3.6,4-4.2,5.5c-0.3,0.7-0.5,1.5-0.8,2.5c0,0,0,0.1,0,0.2c0,0.4,0,1-0.5,1.4
				c-0.3,0.2-0.7,0.3-1.1,0.2c-0.2-0.1-0.4-0.2-0.5-0.3c-0.4,1.5-0.9,3.2-2.2,3.9c-0.3,0.2-0.7,0.3-1.1,0.4
				C36.4,42.2,36.3,42.2,36.2,42.2L36.2,42.2z"/>
			<path class="st3" d="M32.1,42c-0.4,0-0.9-0.3-1-0.7c-1-3-1.3-6.3-0.9-9.7c0,0,0-0.2,0.1-0.4c0.1-0.8,0.2-1.3,0.2-1.8
				c-0.5,0.2-1,0.2-1.4-0.1c-0.8-0.5-0.5-1.3,0.2-3.1c0.1-0.3,0.2-0.5,0.2-0.6c0.9-3.7,2.2-6.9,3.7-9.4c1.2-2.1,4.5-4.8,6.6-5.9
				c0.1-0.1,0.3-0.1,0.6-0.3c0,0,0,0,0,0c-0.3-0.1-0.6-0.3-0.8-0.6c-0.2-0.4-0.2-0.8,0-1.2c0-0.1,0.4-0.8,1.3-0.6
				C42.9,7.2,45,6,46.5,5C52.2,1.6,60.8-2,68.9,6l0.3,0.3c1.6,1.5,3.9,3.8,3.9,6.1c0,0.6-0.5,1.1-1.1,1.1S71,13,71,12.5
				c0-1.4-2.1-3.5-3.3-4.6l-0.4-0.3C62,2.1,55.8,1.9,47.6,6.8c-1.2,0.7-2.3,1.3-3.5,1.9c0.2,0.2,0.3,0.5,0.3,0.9
				c0,0.9-0.8,1.3-3.1,2.3c-0.2,0.1-0.4,0.2-0.5,0.2c-1.8,0.9-4.8,3.4-5.8,5.1c-1.4,2.3-2.6,5.3-3.4,8.8c0,0.1-0.1,0.2-0.2,0.5
				c0.4-0.1,0.7,0,1,0.3c0.4,0.4,0.5,0.6-0.1,4.5l-0.1,0.4c-0.4,3.1-0.1,6.1,0.8,8.8c0.2,0.5-0.1,1.2-0.7,1.3
				C32.3,42,32.2,42,32.1,42L32.1,42z"/>
			<path class="st3" d="M58.6,84.5c-0.5,0-1-0.4-1-0.9c0-0.4-0.4-4.2,1.2-6.2c0.6-0.7,1.3-1.1,2.2-1.1c1.4-0.1,4.6-1.6,8.4-4.1
				c1.1-0.7,1.8-1.2,1.9-1.2c0.3-0.2,0.7-0.2,1-0.1c0.3,0.1,0.6,0.4,0.6,0.8l0.6,4.2c0.1,0.6-0.3,1.1-0.9,1.2s-1.1-0.3-1.2-0.9
				l-0.4-2.6c-0.2,0.1-0.3,0.2-0.5,0.3c-3,1.9-7.1,4.2-9.4,4.4c-0.3,0-0.5,0.1-0.8,0.4c-0.8,0.9-0.9,3.3-0.7,4.6
				c0.1,0.6-0.4,1.1-0.9,1.2C58.7,84.5,58.7,84.5,58.6,84.5L58.6,84.5z"/>
			<path class="st3" d="M55.8,84.9c0,0-0.1,0-0.1,0c-0.6-0.1-1-0.6-0.9-1.2c0.2-1.6,0.1-4.4-0.6-5.1c-0.1-0.1-0.2-0.1-0.3-0.1
				c-2.2,0.1-6.7-2.4-9.4-4L44.1,77c-0.1,0.6-0.6,1-1.2,0.9c-0.6-0.1-1-0.6-0.9-1.2l0.5-4.2c0-0.4,0.3-0.7,0.6-0.8
				c0.3-0.1,0.7-0.1,1,0.1c0,0,0.3,0.2,0.9,0.6c4,2.5,7.5,4.1,8.7,4c0.8,0,1.4,0.2,1.9,0.8c1.6,1.7,1.3,6,1.2,6.8
				C56.8,84.5,56.3,84.9,55.8,84.9L55.8,84.9z"/>
			<path class="st3" d="M65.5,48.9c-0.1,0-0.3,0-0.4,0c-3.6-0.2-5.8-2.2-6-5.6c0-0.3,0-0.6,0-0.9c0-1.8,0.8-3.1,2.2-3.9
				c1.1-0.6,2.5-0.9,4.2-0.9c2.8,0,5.9,1.3,6.1,4.7c0.1,2-0.5,3.8-1.7,5C68.8,48.4,67.3,48.9,65.5,48.9L65.5,48.9z M65.2,39.3
				c-1.3,0-2.4,0.2-3.1,0.7c-0.9,0.5-1.4,1.3-1.4,2.5c0,0.2,0,0.5,0,0.7c0,0,0,0,0,0c0.2,2.6,1.7,4,4.4,4.1c1.5,0.1,2.7-0.3,3.5-1.1
				c1.2-1.2,1.2-3,1.2-3.7c-0.1-2.8-3.1-3.1-4.4-3.1C65.4,39.3,65.3,39.3,65.2,39.3L65.2,39.3z"/>
			<path class="st3" d="M48,49.2c-1.8,0-3.3-0.5-4.4-1.6c-1.2-1.2-1.8-3-1.7-5c0-0.2,0-0.3,0-0.4c0.3-2.6,2.5-4.2,6-4.3
				c1.7,0,3.1,0.3,4.2,0.9c1.4,0.8,2.2,2.2,2.2,3.9c0,0.2,0,0.4,0,0.6c-0.2,3.6-2.3,5.7-6,5.9C48.3,49.2,48.2,49.2,48,49.2L48,49.2z
				 M48.3,39.6c-0.1,0-0.1,0-0.2,0c-1.2,0-4.1,0.4-4.4,2.9c0,0.1,0,0.2,0,0.3c0,0.7,0,2.5,1.2,3.7c0.8,0.8,2,1.2,3.5,1.1
				c2.8-0.1,4.3-1.5,4.4-4.3l0,0c0-0.2,0-0.3,0-0.5c0-1.2-0.5-2-1.4-2.5C50.6,39.8,49.6,39.6,48.3,39.6L48.3,39.6z"/>
			<path class="st3" d="M42.9,43.2c-0.1,0-0.1,0-0.2,0h0l-6.5-1.7c-0.5-0.1-0.7-0.6-0.6-1s0.6-0.7,1-0.6l6.5,1.6
				c0.5,0.1,0.7,0.6,0.6,1C43.6,42.9,43.2,43.2,42.9,43.2L42.9,43.2z"/>
			<path class="st3" d="M70.9,43.2c-0.3,0-0.7-0.2-0.8-0.5c-0.2-0.4,0.1-0.9,0.5-1.1l5.7-2.1c0.4-0.2,0.9,0.1,1.1,0.5
				s-0.1,0.9-0.5,1.1l-5.7,2.1C71.1,43.2,71,43.2,70.9,43.2z"/>
			<path class="st3" d="M53.6,44.1c-0.5,0-0.8-0.4-0.8-0.8c0-0.5,0.4-0.8,0.8-0.8l6.2-0.1c0.5,0,0.8,0.4,0.8,0.8
				c0,0.5-0.4,0.8-0.8,0.8L53.6,44.1L53.6,44.1L53.6,44.1z"/>
		</g>
	</g>
</g>
</svg>
