<?xml version="1.0" encoding="utf-8"?>
<!-- Generator: Adobe Illustrator 27.2.0, SVG Export Plug-In . SVG Version: 6.00 Build 0)  -->
<svg version="1.1" id="_レイヤー_2" xmlns="http://www.w3.org/2000/svg" xmlns:xlink="http://www.w3.org/1999/xlink" x="0px"
	 y="0px" viewBox="0 0 110 110" style="enable-background:new 0 0 110 110;" xml:space="preserve">
<style type="text/css">
	.st0{fill:#EDD46F;}
	.st1{fill:#B1B1B1;}
	.st2{fill:#FFFFFF;}
	.st3{fill:#F5E8AC;}
	.st4{fill:#343434;}
</style>
<g id="contents">
	<g>
		<g>
			<polygon class="st0" points="107.4,30.6 104.7,31.9 103.4,34.6 102,31.9 99.3,30.6 102,29.2 103.4,26.5 104.7,29.2 			"/>
			<path class="st1" d="M40.9,74.7C42.4,81.4,52,95.9,53,97.3l0.5,0c0,0,10.8-15.9,12.2-22.9h0.1v-3h0.1c1.1-0.6,2.2,1.1,3.2,3.6
				l0.5-0.2c7.6,1.9,24.2,6.7,28.1,13.4c2.1,3.6,5.3,12.1,7.1,19.4H26v-0.1l-2.5-16.9h-3.1l0.7-5c1.2-0.7,2.6-1.2,3.4-2.3
				c1-1.3,2-3.4,2.9-5.6c3.6-1.2,7-2.1,9.5-2.8l0.6-0.1c1-2.3,2-3.8,3.1-3.3l0.7,0c0,1.8,0.1,3.1,0.1,3.1l-0.2,0.1L40.9,74.7
				L40.9,74.7z M54.7,105.4c0-0.7-0.6-1.2-1.4-1.2s-1.4,0.6-1.4,1.2s0.6,1.2,1.4,1.2S54.7,106.1,54.7,105.4z"/>
			<polygon class="st0" points="98.8,47.7 96.1,49.1 94.8,51.8 93.4,49.1 90.7,47.7 93.4,46.3 94.8,43.6 96.1,46.3 			"/>
			<path class="st2" d="M47.2,55.1l0,0.1c0.2,2.7,2.6,4.1,5.9,4c2.9-0.1,5-1.7,5.4-4.2L58.2,55c0,0-2.6-0.2-5.3-0.2
				C50.4,54.8,47.7,55.1,47.2,55.1z M30.7,39.1l1.9,0c3.1-2.2,3.2-10.3,6.9-15.9c2.9-4.4,8.8-7.3,14.9-4.2c0,0,1.2,2.1,5.3,1.8
				l4.1-0.3c5.9-1.3,4.3,16.7,8.6,17.7l0.4,0.7c1.2-0.8,2.5-0.7,3.6,0c1.2,0.8,2.2,2.2,2.4,3.7c0.6,4.7-2.4,7.3-6.4,9.3L72,51.7
				c-0.6,3.1-2.2,8.6-6.3,12.6c-2.8,2.7-6.7,4.7-12.3,4.8c-5.4,0.2-9.3-1.8-12.2-4.6c-4.4-4.3-6.3-10.4-7-13.3l-0.8-0.2
				c-6.7,0-9.6-11.5-3.7-12.1C30.1,39.1,30.4,39.1,30.7,39.1L30.7,39.1z M63,41.9c0.1-0.9-0.7-1.7-1.6-1.8c-1-0.1-1.8,0.6-1.9,1.5
				s0.7,1.7,1.6,1.8S63,42.8,63,41.9z M45.2,43.3c1-0.1,1.7-0.9,1.6-1.8s-1-1.5-1.9-1.5s-1.7,0.9-1.6,1.8
				C43.3,42.8,44.2,43.4,45.2,43.3z"/>
			<path class="st3" d="M68.1,11.7c2.7-1,7.6,0.9,10,7.7c2.5,6.9-1.1,19.4-1.1,19.4l-0.5,0c-1.1-0.7-2.4-0.8-3.6,0l-0.4-0.7
				c-4.3-1-2.7-18.9-8.6-17.7l-4.1,0.3c-4.2,0.3-5.3-1.8-5.3-1.8c-6.1-3.1-12-0.2-14.9,4.2c-3.7,5.6-3.8,13.6-6.9,15.9l-1.9,0
				c-0.4,0-0.7,0-1,0l-0.1-0.7c0,0-4-11.1-2.2-17c3-9.4,11.9-13.2,18.4-17.1C53.1-0.2,67,4.3,68.1,11.7L68.1,11.7z"/>
			<path class="st2" d="M65.8,71.3v3h-0.1c-1.4,7-19.8,10.7-24.5,0.2l0.2-0.1c0,0,0-1.3-0.1-3.1c0-2.2-0.1-5.1-0.1-6.8
				c2.9,2.8,6.8,4.8,12.2,4.6c5.6-0.2,9.5-2.2,12.3-4.8l0.2,0.2V71.3z"/>
			<path class="st4" d="M61.4,40.1c1,0.1,1.7,0.9,1.6,1.8s-0.9,1.5-1.9,1.5s-1.7-0.9-1.6-1.8S60.4,40,61.4,40.1z"/>
			<path class="st2" d="M65.7,74.4c-1.4,7-12.2,22.9-12.2,22.9l-0.5,0C52,95.9,42.4,81.4,40.9,74.7l0.3-0.1
				C45.9,85.1,64.3,81.3,65.7,74.4z"/>
			<path class="st2" d="M58.2,55l0.3,0.1c-0.4,2.5-2.6,4.1-5.4,4.2c-3.2,0.1-5.7-1.3-5.9-4l0-0.1c0.5-0.1,3.2-0.4,5.7-0.4
				C55.6,54.8,58.2,55,58.2,55z"/>
			<path class="st2" d="M53.3,104.2c0.8,0,1.4,0.6,1.4,1.2s-0.6,1.2-1.4,1.2s-1.4-0.6-1.4-1.2S52.5,104.2,53.3,104.2z"/>
			<path class="st4" d="M46.8,41.5c0.1,0.9-0.7,1.7-1.6,1.8s-1.8-0.6-1.9-1.5c-0.1-0.9,0.7-1.7,1.6-1.8C45.8,40,46.7,40.6,46.8,41.5
				z"/>
			<path class="st2" d="M25.9,62.9c3.1-1.9,4.2,4.6,4.1,6.2c-0.1,1.5-1.2,5.2-2.5,8.5c-0.9,2.2-1.9,4.4-2.9,5.6
				c-0.8,1.1-2.2,1.6-3.4,2.3l-0.7,5H7.1v-0.2l0.6-3.9l0-0.2c0-5.1-1.1-22.6,2.6-26.3c1.9-1.9,11.9-5.1,14-3.4
				c1.1,0.9,2.5,4.2,0,4.2l0,0.1c0.1,0,0.1,0,0.2,0.1C25.2,61.2,25.7,62,25.9,62.9z"/>
			<polygon class="st1" points="26,107.4 26,107.6 2.6,107.6 2.6,107.4 4.9,90.5 7.1,90.5 20.4,90.5 23.5,90.5 			"/>
		</g>
		<g>
			<path class="st4" d="M53.3,107.7c-1.3,0-2.4-1-2.4-2.3s1.1-2.3,2.4-2.3s2.4,1,2.4,2.3S54.6,107.7,53.3,107.7z M53.3,105.2
				c-0.2,0-0.3,0.1-0.3,0.2s0.1,0.2,0.3,0.2s0.3-0.1,0.3-0.2S53.5,105.2,53.3,105.2z"/>
			<path class="st4" d="M52.8,60.4c-3.8,0-6.5-2-6.7-5c0-0.6,0.4-1.1,1-1.1c0.6-0.1,1.1,0.4,1.1,1c0.2,2.9,3.7,3.1,4.8,3.1
				c2.4-0.1,4.1-1.3,4.4-3.3c0.1-0.6,0.6-1,1.2-0.9c0.6,0.1,1,0.6,0.9,1.2c-0.5,3-3,5-6.5,5.1C53,60.4,52.9,60.4,52.8,60.4
				L52.8,60.4z"/>
			<path class="st4" d="M47.1,56.2L47.1,56.2c-0.6,0-1-0.5-1-1.1c0-0.6,0.5-1,1-1c0,0,3-0.4,5.8-0.4c2.8,0,5.3,0.2,5.4,0.3
				c0.6,0,1,0.6,1,1.1c0,0.6-0.6,1-1.1,1c0,0-2.6-0.2-5.2-0.2h-0.1c-2.6,0-5.5,0.4-5.5,0.4C47.2,56.2,47.1,56.2,47.1,56.2L47.1,56.2
				z"/>
			<path class="st4" d="M103.4,35.7c-0.4,0-0.8-0.2-0.9-0.6l-1.2-2.4l-2.4-1.2c-0.3-0.2-0.6-0.5-0.6-0.9c0-0.4,0.2-0.8,0.6-0.9
				l2.4-1.2l1.2-2.4c0.2-0.4,0.5-0.6,0.9-0.6l0,0c0.4,0,0.8,0.2,0.9,0.6l1.2,2.4l2.4,1.2c0.3,0.2,0.6,0.5,0.6,0.9s-0.2,0.8-0.6,0.9
				l-2.4,1.2l-1.2,2.4C104.1,35.5,103.7,35.7,103.4,35.7z M101.6,30.6l0.9,0.4c0.2,0.1,0.4,0.3,0.5,0.5l0.4,0.9l0.4-0.9
				c0.1-0.2,0.3-0.4,0.5-0.5l0.9-0.4l-0.9-0.4c-0.2-0.1-0.4-0.3-0.5-0.5l-0.4-0.9l-0.4,0.9c-0.1,0.2-0.3,0.4-0.5,0.5L101.6,30.6z"/>
			<path class="st4" d="M94.8,52.8c-0.4,0-0.8-0.2-0.9-0.6l-1.2-2.4l-2.4-1.2c-0.3-0.2-0.6-0.5-0.6-0.9s0.2-0.8,0.6-0.9l2.4-1.2
				l1.2-2.4c0.2-0.3,0.5-0.6,0.9-0.6s0.8,0.2,0.9,0.6l1.2,2.4l2.4,1.2c0.3,0.2,0.6,0.5,0.6,0.9s-0.2,0.8-0.6,0.9l-2.4,1.2l-1.2,2.4
				C95.5,52.6,95.1,52.8,94.8,52.8z M93,47.7l0.9,0.4c0.2,0.1,0.4,0.3,0.5,0.5l0.4,0.9l0.4-0.9c0.1-0.2,0.3-0.4,0.5-0.5l0.9-0.4
				l-0.9-0.4c-0.2-0.1-0.3-0.3-0.5-0.5l-0.4-0.9l-0.4,0.9c-0.1,0.2-0.3,0.4-0.5,0.5L93,47.7z"/>
			<path class="st4" d="M26,108.5c-0.5,0-1-0.4-1-0.9l-2.4-16.1H5.8l-2.2,16c-0.1,0.6-0.6,1-1.2,0.9s-1-0.6-0.9-1.2l2.4-16.9
				c0.1-0.5,0.5-0.9,1-0.9h18.5c0.5,0,1,0.4,1,0.9l2.5,16.9c0.1,0.6-0.3,1.1-0.9,1.2C26.1,108.5,26.1,108.5,26,108.5L26,108.5z"/>
			<path class="st4" d="M52.7,70.2c-4.8,0-8.9-1.7-12.2-4.9c-4.5-4.4-6.5-10.5-7.3-13.8c-0.2-1-0.3-1.6-0.3-1.6
				c-0.1-0.6,0.3-1.1,0.9-1.2c0.6-0.1,1.1,0.3,1.2,0.9c0,0,0.1,0.5,0.3,1.4c0.6,2.5,2.4,8.6,6.7,12.8c3.1,3,6.9,4.4,11.4,4.3
				c4.7-0.2,8.6-1.7,11.6-4.6c4-3.8,5.5-9.2,6-12.1c0.3-1.4,0.3-2.3,0.3-2.3c0-0.6,0.5-1,1.1-1c0.6,0,1,0.5,1,1.1c0,0-0.1,1-0.3,2.6
				c-0.6,3.1-2.2,9-6.7,13.2c-3.4,3.2-7.8,5-13,5.2C53.1,70.2,52.9,70.2,52.7,70.2L52.7,70.2z"/>
			<path class="st4" d="M77,39.8c-0.1,0-0.2,0-0.3,0c-0.6-0.2-0.9-0.7-0.7-1.3c0-0.1,3.4-12.3,1.1-18.8c-2.2-6.2-6.4-7.8-8.7-7
				c0,0-0.1,0-0.1,0c-0.5,0.2-1.1-0.1-1.3-0.6c-0.2-0.5,0-1.1,0.6-1.4c0.1,0,0.2-0.1,0.2-0.1c3.1-1,8.6,0.8,11.3,8.3
				c2.6,7.1-0.9,19.5-1.1,20.1C77.9,39.5,77.5,39.8,77,39.8L77,39.8z M68.3,12.7L68.3,12.7L68.3,12.7z M68.3,12.7L68.3,12.7
				L68.3,12.7z"/>
			<path class="st4" d="M65.8,75.5c-0.6,0-1.1-0.4-1.1-1v-9.9c0-0.6,0.5-1,1.1-1c0.6,0,1.1,0.5,1.1,1v9.9
				C66.8,74.9,66.4,75.4,65.8,75.5L65.8,75.5z"/>
			<path class="st4" d="M53,82.1c-4.9,0-10.3-1.8-12.7-7.1c-0.2-0.5,0-1.2,0.5-1.4s1.2,0,1.4,0.5c2.2,5,8,6.3,12.7,5.8
				c5-0.6,9.2-3,9.8-5.8c0.1-0.6,0.7-0.9,1.2-0.8s0.9,0.7,0.8,1.2c-0.8,3.7-5.5,6.8-11.6,7.4C54.4,82.1,53.7,82.1,53,82.1L53,82.1z"
				/>
			<path class="st4" d="M104.8,108.6c-0.5,0-0.9-0.3-1-0.8c-1.9-7.7-5.1-15.9-7-19.2c-3.8-6.3-20.4-11.1-27.4-12.9
				c-0.6-0.1-0.9-0.7-0.8-1.3s0.7-0.9,1.3-0.8c9,2.3,24.7,7.1,28.7,13.9c2.3,3.9,5.5,12.6,7.2,19.7c0.1,0.6-0.2,1.1-0.8,1.3
				C105,108.6,104.9,108.6,104.8,108.6L104.8,108.6z"/>
			<path class="st4" d="M27.3,78.7c-0.4,0-0.9-0.3-1-0.7c-0.2-0.6,0.1-1.1,0.7-1.3l0.1-0.1c3.8-1.2,7.3-2.2,9.6-2.8
				c0.6-0.2,1.1,0.2,1.3,0.8c0.1,0.6-0.2,1.1-0.8,1.3c-2.2,0.6-5.7,1.5-9.4,2.7l-0.2,0.1C27.5,78.7,27.4,78.7,27.3,78.7L27.3,78.7z"
				/>
			<path class="st4" d="M33.4,52.2c-4.5,0-7.8-4.5-8-8.7c-0.1-3.1,1.5-5.3,4.2-5.5c0.4,0,0.8,0,1.2,0c0.6,0.1,1.3,0.2,2,0.4
				c0.5,0.2,0.9,0.8,0.7,1.3s-0.8,0.9-1.3,0.7c-0.5-0.2-1.1-0.3-1.6-0.3c-0.3,0-0.5,0-0.8,0c-2.1,0.2-2.4,2.2-2.3,3.3
				c0.1,2.7,2.3,6.7,5.8,6.7c0.6,0,1.1,0.5,1.1,1S34,52.2,33.4,52.2z"/>
			<path class="st4" d="M72.5,52.8c-0.4,0-0.8-0.2-0.9-0.6c-0.2-0.5,0-1.2,0.5-1.4c4.5-2.2,6.3-4.6,5.8-8.2c-0.2-1.2-0.9-2.3-1.9-3
				c-0.9-0.5-1.7-0.5-2.5,0c-0.2,0.1-0.3,0.2-0.4,0.4c-0.4,0.4-1.1,0.4-1.5,0s-0.4-1.1,0-1.5c0.2-0.2,0.4-0.4,0.7-0.6
				c1.5-1,3.2-1,4.8,0c1.5,0.9,2.6,2.7,2.9,4.5c0.8,5.9-3.6,8.7-7,10.3C72.8,52.8,72.6,52.8,72.5,52.8L72.5,52.8z"/>
			<path class="st4" d="M52.4,50.6c-0.6,0-1.1-0.1-1.6-0.3c-0.4-0.2-0.6-0.7-0.4-1.1c0.2-0.4,0.7-0.6,1.1-0.4
				c0.6,0.3,1.4,0.2,2.1-0.1c0.4-0.2,0.9,0,1.1,0.4c0.2,0.4,0,0.9-0.4,1.1C53.8,50.4,53.1,50.5,52.4,50.6L52.4,50.6z"/>
			<path class="st4" d="M53.1,62.8c-0.6,0-1.1-0.1-1.6-0.3c-0.4-0.2-0.6-0.7-0.4-1.1c0.2-0.4,0.7-0.6,1.1-0.4
				c0.6,0.3,1.4,0.2,2.1-0.1c0.4-0.2,0.9,0,1.1,0.4s0,0.9-0.4,1.1C54.5,62.6,53.8,62.8,53.1,62.8L53.1,62.8z"/>
			<path class="st4" d="M41.4,75.6c-0.6,0-1-0.4-1-1c0,0,0-1.3-0.1-3.1c-0.1-3.2-0.1-5.5-0.1-6.9c0-0.6,0.5-1,1-1s1,0.5,1,1
				c0,1.4,0,3.6,0.1,6.8c0,1.8,0.1,3.1,0.1,3.1C42.4,75.1,42,75.5,41.4,75.6C41.4,75.6,41.4,75.6,41.4,75.6L41.4,75.6z"/>
			<path class="st4" d="M63.1,35.5c-0.2,0-0.3,0-0.5-0.1c0,0-1.4-0.9-2.4-0.4c-0.4,0.2-0.9,0.1-1.1-0.3s-0.1-0.9,0.3-1.1
				c1.9-1,4,0.4,4.1,0.5c0.4,0.3,0.5,0.8,0.2,1.2C63.6,35.3,63.3,35.5,63.1,35.5z"/>
			<path class="st4" d="M42.6,35.5c-0.3,0-0.5-0.1-0.7-0.4c-0.3-0.4-0.2-0.9,0.2-1.2c0.1-0.1,2.2-1.5,4.1-0.5
				c0.4,0.2,0.6,0.7,0.3,1.1s-0.7,0.6-1.1,0.3c-1-0.5-2.4,0.4-2.4,0.4C43,35.4,42.8,35.5,42.6,35.5z"/>
			<path class="st4" d="M53.5,98.3c-0.2,0-0.4-0.1-0.6-0.2c-0.5-0.3-0.6-1-0.3-1.5c0.1-0.2,10.7-15.8,12-22.5
				c0.1-0.6,0.7-0.9,1.2-0.8c0.6,0.1,0.9,0.7,0.8,1.2c-1.5,7.1-11.9,22.6-12.3,23.3C54.2,98.1,53.8,98.3,53.5,98.3z"/>
			<path class="st4" d="M53,98.4c-0.3,0-0.6-0.1-0.8-0.4c0,0,0-0.1-0.1-0.2C51.7,97.2,41.4,82,39.9,74.9c0,0,0-0.2-0.1-0.3
				c-0.1-0.6,0.3-1.1,0.9-1.2c0.6-0.1,1.1,0.3,1.2,0.9c0,0,0,0.1,0,0.1c1.5,6.7,11.5,21.6,11.9,22.2L53,97.4l0.9-0.6
				c0.3,0.5,0.2,1.1-0.2,1.4C53.5,98.3,53.3,98.4,53,98.4L53,98.4z"/>
			<path class="st4" d="M32.7,40.1c-0.3,0-0.6-0.2-0.9-0.4c-0.3-0.5-0.2-1.1,0.2-1.5c1.3-1,2.1-3.7,3-6.6c0.9-2.9,1.8-6.3,3.7-9.1
				c3-4.6,9.4-8,16.3-4.6c0.5,0.3,0.7,0.9,0.5,1.4s-0.9,0.7-1.4,0.5c-5.7-2.9-11,0-13.6,3.8c-1.7,2.5-2.6,5.7-3.4,8.5
				c-1,3.4-1.8,6.3-3.7,7.7C33.1,40,32.9,40.1,32.7,40.1z"/>
			<path class="st4" d="M72.5,39.1c-0.1,0-0.2,0-0.2,0c-2.6-0.6-3.3-4.6-4.2-9.2c-0.7-3.5-1.4-7.4-2.9-8.3c-0.3-0.2-0.6-0.2-1-0.2
				c-0.6,0.1-1.1-0.2-1.2-0.8c-0.1-0.6,0.2-1.1,0.8-1.2c1-0.2,1.8,0,2.6,0.5c2.2,1.5,3,5.4,3.8,9.7c0.6,3.1,1.4,7.2,2.7,7.5
				c0.6,0.1,0.9,0.7,0.8,1.3C73.4,38.8,73,39.1,72.5,39.1L72.5,39.1z"/>
			<path class="st4" d="M57.5,19.5c-0.6,0-1-0.5-1-1c0-0.8-1.6-1.9-2.5-1.9c-0.6,0-1-0.5-1-1.1s0.5-1.1,1-1.1c1.8,0,4.6,1.7,4.6,4
				C58.6,19,58.1,19.5,57.5,19.5z"/>
			<path class="st4" d="M61.3,21.2c-0.1,0-0.2,0-0.3,0c-0.6-0.2-0.9-0.7-0.7-1.3c0.5-1.7,0.1-3.3-1-4.8c-2.3-3.1-7-4.8-9.4-4.8
				c-0.6,0-1-0.5-1-1.1s0.5-1.1,1-1.1c3.3,0,8.5,2.3,11.1,5.6c1.6,2.1,2,4.4,1.4,6.7C62.2,20.9,61.8,21.2,61.3,21.2L61.3,21.2z"/>
			<path class="st4" d="M29.6,39.4c-0.4,0-0.8-0.3-1-0.7c-0.2-0.5-4.1-11.5-2.2-17.7c2.7-8.4,9.8-12.5,16-16c1-0.6,1.9-1.1,2.8-1.6
				c5-3,11.9-2.1,16.6,0.2c4.1,1.9,6.7,4.9,7.2,8.1c0,0.1,0,0.1,0,0.1c0,0.6-0.5,1.1-1.1,1.1c-0.5,0-1-0.4-1-0.9
				c-0.4-2.5-2.6-4.8-6-6.4c-5-2.3-11-2.5-14.7-0.3c-0.9,0.5-1.9,1.1-2.9,1.7c-5.9,3.4-12.7,7.2-15.1,14.9
				c-1.7,5.5,2.1,16.3,2.1,16.4c0.2,0.5-0.1,1.2-0.6,1.3C29.9,39.4,29.7,39.4,29.6,39.4L29.6,39.4z"/>
			<path class="st4" d="M54.7,101.1c-0.4,0-0.8-0.2-0.9-0.6c-0.3-0.5,0-1.2,0.5-1.4c0.4-0.2,1.4-0.7,2.6-1.2
				c2.4-1.1,7.2-3.3,8.5-4.2c-0.2-1-0.7-3.2-1.1-4.6c-0.1-0.3,0-0.7,0.2-0.9c0.2-0.3,0.5-0.4,0.9-0.4c2.4,0.1,4.9,0,5.8-0.3
				c-0.2-2-1.4-8.2-3-12.2c-1.1-2.8-1.8-3-1.8-3c-0.5,0.3-1.1,0.1-1.4-0.5c-0.3-0.5,0-1.2,0.5-1.4c0.5-0.3,1.1-0.3,1.6-0.1
				c1.1,0.4,2.1,1.8,3,4.2c1.8,4.5,3.1,11.5,3.1,13.3c0,0.4-0.2,0.8-0.5,1.1c-0.9,0.9-3.8,1.1-6.1,1c0.4,1.4,0.8,3.4,0.8,4.2
				c0,0.9,0,1.1-9.8,5.6c-1.2,0.5-2.1,1-2.6,1.2C55,101,54.8,101.1,54.7,101.1L54.7,101.1z"/>
			<path class="st4" d="M51.8,101.2c-0.2,0-0.3,0-0.5-0.1c-0.4-0.2-1.4-0.7-2.6-1.2C39,95.4,39,95.2,39,94.2c0-0.8,0.5-2.8,0.8-4.2
				c-2.3,0-5.1-0.1-6.1-1c-0.3-0.3-0.5-0.7-0.5-1.1c0-1.7,1.4-9.1,3.3-13.6c0.9-2.3,1.9-3.5,2.9-3.9c0.5-0.2,1.1-0.2,1.6,0.1
				c0.5,0.3,0.7,0.9,0.5,1.4c-0.3,0.5-0.9,0.7-1.4,0.5l0,0c0,0-0.6,0.3-1.7,2.7c-1.6,3.9-2.9,10.4-3.1,12.4c0.9,0.3,3.3,0.4,5.8,0.3
				c0.3,0,0.7,0.1,0.9,0.4c0.2,0.3,0.3,0.6,0.2,0.9c-0.4,1.4-0.9,3.6-1.1,4.6c1.3,0.8,6.1,3,8.5,4.1c1.2,0.6,2.2,1,2.7,1.2
				c0.5,0.3,0.7,0.9,0.5,1.4C52.6,101,52.2,101.2,51.8,101.2L51.8,101.2z"/>
			<path class="st4" d="M7.8,87.2c-0.6,0-1-0.5-1-1.1c0-0.8,0-1.8-0.1-3.1c-0.2-9.9-0.2-20.8,2.9-23.9c2.1-2.1,12.7-5.6,15.4-3.5
				c1,0.8,2.2,3,1.7,4.6c-0.1,0.4-0.7,1.5-2.3,1.5c-0.6,0-1-0.5-1-1s0.5-1,1-1c0.3,0,0.4-0.1,0.4-0.1c0.2-0.3-0.4-1.7-1-2.2
				c-1.2-1-10.4,1.2-12.6,3.3c-2.8,2.8-2.5,16-2.3,22.4c0,1.3,0.1,2.3,0.1,3.1C8.8,86.8,8.3,87.3,7.8,87.2L7.8,87.2z"/>
			<path class="st4" d="M24.3,66.3c-0.6,0-1-0.5-1-1.1c0-0.6,0.5-1,1-1c0.2,0,0.4,0,0.5-0.2c0.1-0.1,0.2-0.5,0.1-1
				c-0.1-0.6-0.5-1.1-0.8-1.2l-0.1,0c-2-0.6-6.7,0.7-8.3,1.2c-0.6,0.2-1.1-0.1-1.3-0.7c-0.2-0.5,0.1-1.2,0.6-1.3
				c0.7-0.2,6.5-2.2,9.5-1.3c0.1,0,0.2,0,0.2,0.1c0,0,0.1,0,0.1,0c1.2,0.5,1.8,1.7,2,2.7c0.2,1.1,0.1,2.1-0.5,2.7
				C26.1,65.8,25.4,66.3,24.3,66.3L24.3,66.3z"/>
			<path class="st4" d="M23.5,70.7c-0.1,0-0.1,0-0.2,0c-0.6,0-1-0.5-1-1.1s0.5-1,1.1-1c0.8,0.1,1-0.6,1.1-1.1
				c0.1-0.7-0.2-1.2-0.3-1.2c0,0-0.1,0-0.1,0c-1.8-0.3-6.1,0.6-7.6,0.9c-0.6,0.1-1.1-0.2-1.3-0.8c-0.1-0.6,0.2-1.1,0.8-1.3
				c0.6-0.2,5.8-1.5,8.5-1c0,0,0.1,0,0.2,0c1.3,0.3,2.2,1.8,2,3.6C26.4,69.6,25.1,70.7,23.5,70.7z"/>
			<path class="st4" d="M16,75.1c-0.5,0-0.9-0.3-1-0.8c-0.1-0.6,0.2-1.1,0.8-1.2c0.1,0,1.6-0.4,4.1-0.7c0.6-0.1,1.1,0.3,1.2,0.9
				s-0.3,1.1-0.9,1.2c-2.4,0.3-3.9,0.7-4,0.7C16.1,75.1,16.1,75.1,16,75.1L16,75.1z"/>
			<path class="st4" d="M19.9,77.5c-0.6,0-1.2-0.1-1.6-0.4c-0.7-0.4-1.4-1.3-1.2-3.2c0.1-0.6,0.6-1,1.2-0.9s1,0.6,0.9,1.2
				c0,0.3-0.1,1,0.2,1.2c0.6,0.4,2.4-0.1,3.8-1.1c0.7-0.5,1-1.7,0.8-2.5c-0.1-0.4-0.3-1-0.9-1.1c-1.7-0.2-4.6,0.4-5.6,0.6
				c-0.6,0.1-1.1-0.2-1.3-0.8c-0.1-0.6,0.2-1.1,0.8-1.3c0.2,0,3.9-1,6.3-0.7c1.4,0.2,2.4,1.2,2.7,2.7c0.4,1.6-0.1,3.7-1.6,4.7
				C23.4,76.6,21.6,77.5,19.9,77.5L19.9,77.5z"/>
			<path class="st4" d="M19.9,83c-0.2,0-0.3,0-0.5-0.1c-0.5-0.3-0.7-0.9-0.5-1.4c0.6-1.2-0.1-3-0.5-4.4l-0.1-0.3
				c-0.2-0.6,0.1-1.1,0.7-1.3c0.5-0.2,1.1,0.1,1.3,0.7l0.1,0.3c0.6,1.7,1.4,4.1,0.4,6C20.6,82.8,20.3,83,19.9,83z"/>
			<path class="st4" d="M19.7,87.7c-0.2,0-0.5-0.1-0.7-0.2c-0.4-0.4-0.5-1-0.1-1.5c0.4-0.5,0.9-0.9,1.6-1.3c0.3-0.2,0.6-0.3,1-0.5
				c0.9-0.5,1.7-0.9,2.2-1.5c0.8-1.1,1.8-3,2.8-5.4c1.4-3.5,2.4-7,2.5-8.2c0.1-1.2-0.6-4.6-1.7-5.3c-0.1-0.1-0.3-0.2-0.8,0.1
				c0,0-0.1,0-0.1,0.1c-0.5,0.3-1.1,0.2-1.5-0.3c-0.3-0.5-0.2-1.1,0.3-1.5c0.1-0.1,0.2-0.1,0.3-0.2c1-0.6,2-0.6,2.9-0.1
				c2.3,1.4,2.8,6.2,2.7,7.3c-0.1,1.7-1.2,5.5-2.6,8.9c-0.7,1.8-1.8,4.3-3,5.9c-0.7,1-1.8,1.6-2.9,2.1c-0.3,0.2-0.6,0.3-0.9,0.5
				c-0.5,0.3-0.9,0.6-1.1,0.8C20.3,87.5,20,87.7,19.7,87.7L19.7,87.7z"/>
			<path class="st4" d="M20.4,91.5c0,0-0.1,0-0.1,0c-0.6-0.1-1-0.6-0.9-1.2l0.7-5c0.1-0.6,0.6-1,1.2-0.9c0.6,0.1,1,0.6,0.9,1.2
				l-0.7,5C21.4,91.2,20.9,91.6,20.4,91.5L20.4,91.5z"/>
			<path class="st4" d="M7.1,91.3c-0.1,0-0.1,0-0.2,0c-0.6-0.1-1-0.6-0.9-1.2l0.6-3.9c0.1-0.6,0.6-1,1.2-0.9c0.6,0.1,1,0.6,0.9,1.2
				l-0.6,3.9C8.1,91,7.7,91.3,7.1,91.3z"/>
		</g>
	</g>
</g>
</svg>
